# xmcd
#
# Track frame offsets:
#	150
#	15190
#	26150
#	40238
#	54248
#	66055
#	80228
#	92950
#	107193
#	120848
#	135175
#	148618
#	162628
#	177308
#	191838
#	202185
#	213448
#	226440
#	237335
#	250563
#	265535
#	278050
#	290093
#	300838
#	314468
#
# Disc length: 4381 seconds
# Revision: 2
# Processed by: cddbd v1.5.2PL0 Copyright (c) Steve Scherf et al.
# Submitted via: dBpowerAMP V12.0
#
DISCID=62111b19
DTITLE=Various Artist - Hard Times and Cool Blues
DYEAR=1990
DGENRE=Rhythm and Blues
TTITLE0=Johnny Moore's Three Blazers - Driftin' Blues
TTITLE1=Charles Brown and His Band - Honeysipper
TTITLE2=Charles Brown with Johnny Moore's Three Blazers - Let's Walk
TTITLE3=Charles Brown and HIs Band - Seven Long Days
TTITLE4=Charles Brown and His Band - I'll Always Be In Love With You
TTITLE5=Charles Brown and HIs Band - Black Night
TTITLE6=Charles Brown and His Band - Fool's Paradise
TTITLE7=Charles Brown and HIs Band - Again
TTITLE8=Charles Brown and HIs Band - My Baby's Gone
TTITLE9=Charles Brown and HIs Band - Don't Fool Woth My Heart
TTITLE10=Charles Brown and HIs Band - Still Water
TTITLE11=Charles Brown and HIs Band - Hard Times
TTITLE12=Charles Brown and HIs Band - Love Is A Gamble
TTITLE13=Charles Brown and His Smarties - Homesick Blues
TTITLE14=Charles Brown Trio - How High The Moon
TTITLE15=Charles Brown Trio - Baby Do You Know The Game
TTITLE16=Charles Brown Trio - It's Nothing
TTITLE17=Charles Brown Trio - Trouble Blues
TTITLE18=Charles Brown and His Band - Merry Christmas Baby
TTITLE19=Charles Brown and His Band - Trees Trees
TTITLE20=Charles Brown and HIs Band - Evening Shadows
TTITLE21=Charles Brown with Johnny Moore's Three Blazers - Cryin and Driftin' Blues
TTITLE22=Charles Brown and His Band - Hot Lips And Seven Kisses
TTITLE23=Charles Brown Trio - A Long Time
TTITLE24=Charles Brown with Johnny Moore's Three Blazers - Goodnight My Love
EXTD=
EXTT0=
EXTT1=
EXTT2=
EXTT3=
EXTT4=
EXTT5=
EXTT6=
EXTT7=
EXTT8=
EXTT9=
EXTT10=
EXTT11=
EXTT12=
EXTT13=
EXTT14=
EXTT15=
EXTT16=
EXTT17=
EXTT18=
EXTT19=
EXTT20=
EXTT21=
EXTT22=
EXTT23=
EXTT24=
PLAYORDER=
